<svg width="20" height="20" viewBox="0 0 20 20" fill="none" xmlns="http://www.w3.org/2000/svg">
<path d="M5.71436 19.2857V5.71425M14.2858 19.2857V5.71425M6.42864 5.71425C6.42864 4.76705 6.80492 3.85864 7.47469 3.18887C8.14446 2.5191 9.05287 2.14282 10.0001 2.14282C10.9473 2.14282 11.8557 2.5191 12.5255 3.18887C13.1952 3.85864 13.5715 4.76705 13.5715 5.71425M16.4286 5.71425H3.5715C2.81374 5.71425 2.08701 6.01527 1.55119 6.55109C1.01538 7.08691 0.714355 7.81363 0.714355 8.57139V16.4285C0.714355 17.1863 1.01538 17.913 1.55119 18.4488C2.08701 18.9847 2.81374 19.2857 3.5715 19.2857H16.4286C17.1864 19.2857 17.9131 18.9847 18.4489 18.4488C18.9848 17.913 19.2858 17.1863 19.2858 16.4285V8.57139C19.2858 7.81363 18.9848 7.08691 18.4489 6.55109C17.9131 6.01527 17.1864 5.71425 16.4286 5.71425Z" stroke="white" stroke-linecap="round" stroke-linejoin="round"/>
</svg>
