<svg width="32" height="32" viewBox="0 0 32 32" fill="none" xmlns="http://www.w3.org/2000/svg">
<path d="M15.224 3.70781C15.5563 2.68506 17.0032 2.68506 17.3355 3.70781L19.5198 10.4303C19.6684 10.8876 20.0946 11.1973 20.5756 11.1973L27.644 11.1973C28.7194 11.1973 29.1665 12.5734 28.2965 13.2055L22.578 17.3602C22.1889 17.6429 22.0261 18.144 22.1747 18.6013L24.359 25.3238C24.6913 26.3465 23.5207 27.197 22.6507 26.5649L16.9323 22.4102C16.5432 22.1275 16.0164 22.1275 15.6273 22.4102L9.90882 26.5649C9.03882 27.197 7.86824 26.3465 8.20055 25.3238L10.3848 18.6013C10.5334 18.144 10.3706 17.6429 9.98154 17.3602L4.26308 13.2055C3.39308 12.5734 3.8402 11.1973 4.91558 11.1973L11.984 11.1973C12.4649 11.1973 12.8911 10.8876 13.0398 10.4303L15.224 3.70781Z" fill="#A2845E"/>
</svg>
