<svg width="15" height="16" viewBox="0 0 15 16" fill="none" xmlns="http://www.w3.org/2000/svg">
<path fill-rule="evenodd" clip-rule="evenodd" d="M14.5455 13.9156C14.5455 15.0691 13.6145 16 12.4611 16H2.08436C0.930909 16 0 15.0691 0 13.9156V3.53891C0 2.38545 0.930909 1.45455 2.08436 1.45455H4.36364V0.734546C4.36481 0.563416 4.42512 0.397955 4.53433 0.266204C4.64355 0.134453 4.79496 0.0445167 4.96291 0.0116362L5.09091 0C5.49236 0 5.81818 0.311273 5.81818 0.734546V1.45455H8.72727V0.734546C8.72845 0.563416 8.78875 0.397955 8.89797 0.266204C9.00719 0.134453 9.1586 0.0445167 9.32654 0.0116362L9.45455 0C9.856 0 10.1818 0.311273 10.1818 0.734546V1.45455H12.4611C13.6145 1.45455 14.5455 2.38545 14.5455 3.53891V13.9156ZM1.45455 5.81818V13.5709C1.45455 14.1091 1.89091 14.5455 2.42909 14.5455H12.1164C12.6545 14.5455 13.0909 14.1091 13.0909 13.5709V5.81818H1.45455ZM3.63636 11.6364C3.99273 11.6364 4.29091 11.9025 4.352 12.2356L4.36364 12.3636C4.36364 12.72 4.09745 13.0182 3.76436 13.0793L3.63636 13.0909C3.44407 13.089 3.26018 13.0118 3.1242 12.8758C2.98822 12.7398 2.91099 12.5559 2.90909 12.3636C2.90909 12.0073 3.17527 11.7091 3.50836 11.648L3.63636 11.6364ZM7.27273 11.6364C7.62909 11.6364 7.92727 11.9025 7.98836 12.2356L8 12.3636C8 12.72 7.73382 13.0182 7.40073 13.0793L7.27273 13.0909C7.08043 13.089 6.89654 13.0118 6.76056 12.8758C6.62458 12.7398 6.54735 12.5559 6.54545 12.3636C6.54545 12.0073 6.81164 11.7091 7.14473 11.648L7.27273 11.6364ZM10.9091 11.6364C11.2655 11.6364 11.5636 11.9025 11.6247 12.2356L11.6364 12.3636C11.6364 12.72 11.3702 13.0182 11.0371 13.0793L10.9091 13.0909C10.7168 13.089 10.5329 13.0118 10.3969 12.8758C10.2609 12.7398 10.1837 12.5559 10.1818 12.3636C10.1818 12.0073 10.448 11.7091 10.7811 11.648L10.9091 11.6364ZM3.63636 9.45455C3.99273 9.45455 4.29091 9.72073 4.352 10.0538L4.36364 10.1818C4.36364 10.5382 4.09745 10.8364 3.76436 10.8975L3.63636 10.9091C3.44407 10.9072 3.26018 10.83 3.1242 10.694C2.98822 10.558 2.91099 10.3741 2.90909 10.1818C2.90909 9.82545 3.17527 9.52727 3.50836 9.46618L3.63636 9.45455ZM7.27273 9.45455C7.62909 9.45455 7.92727 9.72073 7.98836 10.0538L8 10.1818C8 10.5382 7.73382 10.8364 7.40073 10.8975L7.27273 10.9091C7.08043 10.9072 6.89654 10.83 6.76056 10.694C6.62458 10.558 6.54735 10.3741 6.54545 10.1818C6.54545 9.82545 6.81164 9.52727 7.14473 9.46618L7.27273 9.45455ZM10.9091 9.45455C11.2655 9.45455 11.5636 9.72073 11.6247 10.0538L11.6364 10.1818C11.6364 10.5382 11.3702 10.8364 11.0371 10.8975L10.9091 10.9091C10.7168 10.9072 10.5329 10.83 10.3969 10.694C10.2609 10.558 10.1837 10.3741 10.1818 10.1818C10.1818 9.82545 10.448 9.52727 10.7811 9.46618L10.9091 9.45455ZM3.63636 7.27273C3.99273 7.27273 4.29091 7.53891 4.352 7.872L4.36364 8C4.36364 8.35636 4.09745 8.65455 3.76436 8.71564L3.63636 8.72727C3.44407 8.72538 3.26018 8.64815 3.1242 8.51217C2.98822 8.37618 2.91099 8.1923 2.90909 8C2.90909 7.64364 3.17527 7.34545 3.50836 7.28436L3.63636 7.27273ZM7.27273 7.27273C7.62909 7.27273 7.92727 7.53891 7.98836 7.872L8 8C8 8.35636 7.73382 8.65455 7.40073 8.71564L7.27273 8.72727C7.08043 8.72538 6.89654 8.64815 6.76056 8.51217C6.62458 8.37618 6.54735 8.1923 6.54545 8C6.54545 7.64364 6.81164 7.34545 7.14473 7.28436L7.27273 7.27273ZM10.9091 7.27273C11.2655 7.27273 11.5636 7.53891 11.6247 7.872L11.6364 8C11.6364 8.35636 11.3702 8.65455 11.0371 8.71564L10.9091 8.72727C10.7168 8.72538 10.5329 8.64815 10.3969 8.51217C10.2609 8.37618 10.1837 8.1923 10.1818 8C10.1818 7.64364 10.448 7.34545 10.7811 7.28436L10.9091 7.27273ZM1.45455 4.36364H13.0909V3.88364C13.0909 3.34545 12.6545 2.90909 12.1164 2.90909H2.42909C1.89091 2.90909 1.45455 3.34545 1.45455 3.88364V4.36364Z" fill="#333333"/>
</svg>
