<svg width="20" height="20" viewBox="0 0 20 20" fill="none" xmlns="http://www.w3.org/2000/svg">
<path d="M10 11.6667C11.8383 11.6667 13.3333 10.1717 13.3333 8.33333C13.3333 6.495 11.8383 5 10 5C8.16167 5 6.66667 6.495 6.66667 8.33333C6.66667 10.1717 8.16167 11.6667 10 11.6667ZM10 6.66667C10.9192 6.66667 11.6667 7.41417 11.6667 8.33333C11.6667 9.2525 10.9192 10 10 10C9.08084 10 8.33334 9.2525 8.33334 8.33333C8.33334 7.41417 9.08084 6.66667 10 6.66667Z" fill="#333333"/>
<path d="M9.51667 18.1784C9.65781 18.2788 9.82675 18.3328 10 18.3328C10.1733 18.3328 10.3422 18.2788 10.4833 18.1784C10.7367 17.9992 16.6908 13.7 16.6667 8.33335C16.6667 4.65752 13.6758 1.66669 10 1.66669C6.32417 1.66669 3.33334 4.65752 3.33334 8.32919C3.30917 13.7 9.26334 17.9992 9.51667 18.1784ZM10 3.33335C12.7575 3.33335 15 5.57585 15 8.33752C15.0175 12.0359 11.3433 15.3567 10 16.4459C8.65751 15.3559 4.98251 12.0342 5.00001 8.33335C5.00001 5.57585 7.24251 3.33335 10 3.33335Z" fill="#333333"/>
</svg>
