<svg width="20" height="20" viewBox="0 0 20 20" fill="none" xmlns="http://www.w3.org/2000/svg">
<path d="M5.01328 3.75163C4.68732 3.75141 4.36452 3.81545 4.06333 3.94008C3.76214 4.06472 3.48848 4.24751 3.25799 4.478C3.0275 4.70849 2.84471 4.98215 2.72008 5.28334C2.59544 5.58453 2.5314 5.90733 2.53162 6.23329C2.53162 8.09413 5.01328 10.8416 5.01328 10.8416C5.01328 10.8416 7.49495 8.09413 7.49495 6.23329C7.49517 5.90733 7.43113 5.58453 7.30649 5.28334C7.18185 4.98215 6.99906 4.70849 6.76858 4.478C6.53809 4.24751 6.26442 4.06472 5.96324 3.94008C5.66205 3.81545 5.33924 3.75141 5.01328 3.75163ZM5.01328 7.11913C4.83808 7.11913 4.66682 7.06717 4.52114 6.96984C4.37547 6.8725 4.26193 6.73415 4.19488 6.57229C4.12783 6.41042 4.11029 6.23231 4.14447 6.06047C4.17865 5.88864 4.26302 5.7308 4.3869 5.60691C4.51079 5.48303 4.66863 5.39866 4.84047 5.36448C5.0123 5.3303 5.19041 5.34784 5.35228 5.41489C5.51414 5.48194 5.65249 5.59547 5.74983 5.74115C5.84716 5.88682 5.89912 6.05809 5.89912 6.23329C5.8989 6.46816 5.8055 6.69335 5.63942 6.85943C5.47334 7.02551 5.24815 7.11891 5.01328 7.11913ZM17.5199 9.41329V5.82996C17.5137 5.4537 17.4565 5.08003 17.3499 4.71913C17.0765 3.76523 16.4714 2.94036 15.6435 2.39318C14.8157 1.84599 13.8197 1.61248 12.8349 1.73472C11.8502 1.85696 10.9415 2.32692 10.2725 3.05989C9.60364 3.79287 9.21853 4.74066 9.18662 5.73246V5.93913L9.17828 6.66413V14.9575H9.17495V14.9916C9.17495 15.4337 8.99935 15.8576 8.68679 16.1701C8.37423 16.4827 7.95031 16.6583 7.50828 16.6583C7.06626 16.6583 6.64233 16.4827 6.32977 16.1701C6.01721 15.8576 5.84162 15.4337 5.84162 14.9916L5.84495 14.9608H5.84162V13.3416H4.17495V15.0083H4.17662C4.17717 15.8919 4.52871 16.7391 5.15391 17.3635C5.77911 17.9879 6.62675 18.3384 7.51037 18.3379C8.39398 18.3373 9.24118 17.9858 9.8656 17.3606C10.49 16.7354 10.8405 15.8877 10.84 15.0041H10.8416V14.1858H10.8458V7.49746L10.8541 5.93913V5.73329C10.8779 5.07726 11.1586 4.45687 11.6358 4.00602C12.1129 3.55518 12.7482 3.31002 13.4046 3.32348C14.0609 3.33693 14.6856 3.60792 15.1439 4.07794C15.6022 4.54796 15.8573 5.17934 15.8541 5.83579V9.39829C15.535 9.57886 15.2844 9.85967 15.1411 10.1972C14.9978 10.5347 14.9699 10.91 15.0616 11.265C15.1534 11.62 15.3597 11.9348 15.6486 12.1606C15.9375 12.3864 16.2928 12.5106 16.6595 12.5139C17.0261 12.5172 17.3836 12.3994 17.6765 12.1789C17.9694 11.9583 18.1814 11.6473 18.2795 11.294C18.3777 10.9407 18.3565 10.5649 18.2193 10.2249C18.0821 9.88485 17.8358 9.59957 17.5199 9.41329Z" fill="white"/>
</svg>
