<svg width="20" height="20" viewBox="0 0 20 20" fill="none" xmlns="http://www.w3.org/2000/svg">
<path d="M16.825 3.33331H3.33335C2.41669 3.33331 1.67502 4.08331 1.67502 4.99998V8.33331C2.59169 8.33331 3.33335 9.08331 3.33335 9.99998C3.33335 10.9166 2.59169 11.6666 1.66669 11.6666V15C1.66669 15.9166 2.41669 16.6666 3.33335 16.6666H16.6667C17.5834 16.6666 18.3334 15.9166 18.3334 15V4.99998C18.3334 4.08331 17.6584 3.33331 16.825 3.33331ZM16.6667 15H3.33335V12.8833C4.32502 12.3083 5.00002 11.225 5.00002 9.99998C5.00002 8.76665 4.33335 7.69165 3.34169 7.11665L3.33335 4.99998H16.6667V15ZM7.39169 13.05L6.00835 10.65L6.78335 10.4416L7.83335 11.2666L9.82502 10.7333L7.82502 7.26665L8.99169 6.94998L12.3334 10.0666L14.3667 9.52498C14.5722 9.47064 14.7909 9.4997 14.975 9.60584C15.1592 9.71198 15.294 9.88659 15.35 10.0916C15.4014 10.2992 15.3701 10.5187 15.2629 10.7037C15.1556 10.8887 14.9807 11.0248 14.775 11.0833L7.39169 13.05Z" fill="#333333"/>
</svg>
