<svg width="32" height="33" viewBox="0 0 32 33" fill="none" xmlns="http://www.w3.org/2000/svg">
<path d="M25.4 7.0467C24.1774 5.81217 22.7214 4.83332 21.1167 4.16718C19.512 3.50104 17.7908 3.16094 16.0533 3.1667C8.77334 3.1667 2.84 9.10003 2.84 16.38C2.84 18.7134 3.45334 20.98 4.6 22.98L2.73334 29.8334L9.73334 27.9934C11.6667 29.0467 13.84 29.6067 16.0533 29.6067C23.3333 29.6067 29.2667 23.6734 29.2667 16.3934C29.2667 12.86 27.8933 9.54003 25.4 7.0467ZM16.0533 27.3667C14.08 27.3667 12.1467 26.8334 10.4533 25.8334L10.0533 25.5934L5.89334 26.6867L7 22.6334L6.73334 22.22C5.63673 20.4694 5.05457 18.4457 5.05334 16.38C5.05334 10.3267 9.98667 5.39336 16.04 5.39336C18.9733 5.39336 21.7333 6.54003 23.8 8.62003C24.8235 9.63852 25.6346 10.8501 26.1862 12.1845C26.7378 13.5189 27.0189 14.9495 27.0133 16.3934C27.04 22.4467 22.1067 27.3667 16.0533 27.3667ZM22.08 19.1534C21.7467 18.9934 20.12 18.1934 19.8267 18.0734C19.52 17.9667 19.3067 17.9134 19.08 18.2334C18.8533 18.5667 18.2267 19.3134 18.04 19.5267C17.8533 19.7534 17.6533 19.78 17.32 19.6067C16.9867 19.4467 15.92 19.0867 14.6667 17.9667C13.68 17.0867 13.0267 16.0067 12.8267 15.6734C12.64 15.34 12.8 15.1667 12.9733 14.9934C13.12 14.8467 13.3067 14.6067 13.4667 14.42C13.6267 14.2334 13.6933 14.0867 13.8 13.8734C13.9067 13.6467 13.8533 13.46 13.7733 13.3C13.6933 13.14 13.0267 11.5134 12.76 10.8467C12.4933 10.2067 12.2133 10.2867 12.0133 10.2734H11.3733C11.1467 10.2734 10.8 10.3534 10.4933 10.6867C10.2 11.02 9.34667 11.82 9.34667 13.4467C9.34667 15.0734 10.5333 16.6467 10.6933 16.86C10.8533 17.0867 13.0267 20.42 16.3333 21.8467C17.12 22.1934 17.7333 22.3934 18.2133 22.54C19 22.7934 19.72 22.7534 20.2933 22.6734C20.9333 22.58 22.2533 21.8734 22.52 21.1C22.8 20.3267 22.8 19.6734 22.7067 19.5267C22.6133 19.38 22.4133 19.3134 22.08 19.1534Z" fill="white"/>
</svg>
