<svg width="20" height="20" viewBox="0 0 20 20" fill="none" xmlns="http://www.w3.org/2000/svg">
<g clip-path="url(#clip0_30_50)">
<path d="M18.885 5.82344L15.3865 2.07344C15.3279 2.01082 15.257 1.96091 15.1783 1.92677C15.0996 1.89264 15.0148 1.87502 14.929 1.875H9.71181L9.69212 0.585938C9.69212 0.2625 9.41212 0 9.06712 0C8.72212 0 8.48119 0.2625 8.48119 0.585938L8.46214 1.875H1.57214C1.22683 1.875 0.947144 2.15469 0.947144 2.5V10C0.947144 10.3453 1.22683 10.625 1.57214 10.625H8.45371V19.4141C8.45371 19.7375 8.73371 20 9.07871 20C9.42371 20 9.70371 19.7375 9.70371 19.4141V10.625H14.929C15.1025 10.625 15.2678 10.5531 15.3862 10.4266L18.8846 6.67656C19.1087 6.43625 19.1087 6.06375 18.885 5.82344ZM14.6574 9.375H2.19712V3.125H14.6574L17.5731 6.25L14.6574 9.375Z" fill="white"/>
</g>
<defs>
<clipPath id="clip0_30_50">
<rect width="20" height="20" fill="white"/>
</clipPath>
</defs>
</svg>
