<svg aria-hidden="true" xmlns="http://www.w3.org/2000/svg" xmlns:xlink="http://www.w3.org/1999/xlink"><symbol viewBox="0 0 12 7" fill="none" id="icon-arrow" xmlns="http://www.w3.org/2000/svg">
<path d="M1 1L5.23178 6.07814C5.63157 6.55789 6.36843 6.55789 6.76822 6.07813L11 1" stroke="currentColor" stroke-linecap="round"/>
</symbol><symbol viewBox="0 0 15 16" fill="none" id="icon-calendar" xmlns="http://www.w3.org/2000/svg">
<path fill-rule="evenodd" clip-rule="evenodd" d="M14.5455 13.9156C14.5455 15.0691 13.6145 16 12.4611 16H2.08436C0.930909 16 0 15.0691 0 13.9156V3.53891C0 2.38545 0.930909 1.45455 2.08436 1.45455H4.36364V0.734546C4.36481 0.563416 4.42512 0.397955 4.53433 0.266204C4.64355 0.134453 4.79496 0.0445167 4.96291 0.0116362L5.09091 0C5.49236 0 5.81818 0.311273 5.81818 0.734546V1.45455H8.72727V0.734546C8.72845 0.563416 8.78875 0.397955 8.89797 0.266204C9.00719 0.134453 9.1586 0.0445167 9.32654 0.0116362L9.45455 0C9.856 0 10.1818 0.311273 10.1818 0.734546V1.45455H12.4611C13.6145 1.45455 14.5455 2.38545 14.5455 3.53891V13.9156ZM1.45455 5.81818V13.5709C1.45455 14.1091 1.89091 14.5455 2.42909 14.5455H12.1164C12.6545 14.5455 13.0909 14.1091 13.0909 13.5709V5.81818H1.45455ZM3.63636 11.6364C3.99273 11.6364 4.29091 11.9025 4.352 12.2356L4.36364 12.3636C4.36364 12.72 4.09745 13.0182 3.76436 13.0793L3.63636 13.0909C3.44407 13.089 3.26018 13.0118 3.1242 12.8758C2.98822 12.7398 2.91099 12.5559 2.90909 12.3636C2.90909 12.0073 3.17527 11.7091 3.50836 11.648L3.63636 11.6364ZM7.27273 11.6364C7.62909 11.6364 7.92727 11.9025 7.98836 12.2356L8 12.3636C8 12.72 7.73382 13.0182 7.40073 13.0793L7.27273 13.0909C7.08043 13.089 6.89654 13.0118 6.76056 12.8758C6.62458 12.7398 6.54735 12.5559 6.54545 12.3636C6.54545 12.0073 6.81164 11.7091 7.14473 11.648L7.27273 11.6364ZM10.9091 11.6364C11.2655 11.6364 11.5636 11.9025 11.6247 12.2356L11.6364 12.3636C11.6364 12.72 11.3702 13.0182 11.0371 13.0793L10.9091 13.0909C10.7168 13.089 10.5329 13.0118 10.3969 12.8758C10.2609 12.7398 10.1837 12.5559 10.1818 12.3636C10.1818 12.0073 10.448 11.7091 10.7811 11.648L10.9091 11.6364ZM3.63636 9.45455C3.99273 9.45455 4.29091 9.72073 4.352 10.0538L4.36364 10.1818C4.36364 10.5382 4.09745 10.8364 3.76436 10.8975L3.63636 10.9091C3.44407 10.9072 3.26018 10.83 3.1242 10.694C2.98822 10.558 2.91099 10.3741 2.90909 10.1818C2.90909 9.82545 3.17527 9.52727 3.50836 9.46618L3.63636 9.45455ZM7.27273 9.45455C7.62909 9.45455 7.92727 9.72073 7.98836 10.0538L8 10.1818C8 10.5382 7.73382 10.8364 7.40073 10.8975L7.27273 10.9091C7.08043 10.9072 6.89654 10.83 6.76056 10.694C6.62458 10.558 6.54735 10.3741 6.54545 10.1818C6.54545 9.82545 6.81164 9.52727 7.14473 9.46618L7.27273 9.45455ZM10.9091 9.45455C11.2655 9.45455 11.5636 9.72073 11.6247 10.0538L11.6364 10.1818C11.6364 10.5382 11.3702 10.8364 11.0371 10.8975L10.9091 10.9091C10.7168 10.9072 10.5329 10.83 10.3969 10.694C10.2609 10.558 10.1837 10.3741 10.1818 10.1818C10.1818 9.82545 10.448 9.52727 10.7811 9.46618L10.9091 9.45455ZM3.63636 7.27273C3.99273 7.27273 4.29091 7.53891 4.352 7.872L4.36364 8C4.36364 8.35636 4.09745 8.65455 3.76436 8.71564L3.63636 8.72727C3.44407 8.72538 3.26018 8.64815 3.1242 8.51217C2.98822 8.37618 2.91099 8.1923 2.90909 8C2.90909 7.64364 3.17527 7.34545 3.50836 7.28436L3.63636 7.27273ZM7.27273 7.27273C7.62909 7.27273 7.92727 7.53891 7.98836 7.872L8 8C8 8.35636 7.73382 8.65455 7.40073 8.71564L7.27273 8.72727C7.08043 8.72538 6.89654 8.64815 6.76056 8.51217C6.62458 8.37618 6.54735 8.1923 6.54545 8C6.54545 7.64364 6.81164 7.34545 7.14473 7.28436L7.27273 7.27273ZM10.9091 7.27273C11.2655 7.27273 11.5636 7.53891 11.6247 7.872L11.6364 8C11.6364 8.35636 11.3702 8.65455 11.0371 8.71564L10.9091 8.72727C10.7168 8.72538 10.5329 8.64815 10.3969 8.51217C10.2609 8.37618 10.1837 8.1923 10.1818 8C10.1818 7.64364 10.448 7.34545 10.7811 7.28436L10.9091 7.27273ZM1.45455 4.36364H13.0909V3.88364C13.0909 3.34545 12.6545 2.90909 12.1164 2.90909H2.42909C1.89091 2.90909 1.45455 3.34545 1.45455 3.88364V4.36364Z" fill="currentColor"/>
</symbol><symbol viewBox="0 0 24 24" fill="none" id="icon-fc" xmlns="http://www.w3.org/2000/svg">
<path fill-rule="evenodd" clip-rule="evenodd" d="M4 12C4.00014 10.4605 4.44451 8.95364 5.27979 7.66038C6.11506 6.36712 7.30576 5.34234 8.70901 4.70901C10.1123 4.07568 11.6684 3.8607 13.1908 4.08987C14.7132 4.31904 16.1372 4.98262 17.2918 6.00099C18.4464 7.01936 19.2826 8.34926 19.7002 9.83111C20.1177 11.313 20.0988 12.8838 19.6457 14.3552C19.1926 15.8265 18.3246 17.1359 17.1458 18.1262C15.967 19.1165 14.5275 19.7456 13 19.938V14H15C15.2652 14 15.5196 13.8946 15.7071 13.7071C15.8946 13.5196 16 13.2652 16 13C16 12.7348 15.8946 12.4804 15.7071 12.2929C15.5196 12.1054 15.2652 12 15 12H13V10C13 9.73478 13.1054 9.48043 13.2929 9.29289C13.4804 9.10536 13.7348 9 14 9H14.5C14.7652 9 15.0196 8.89464 15.2071 8.70711C15.3946 8.51957 15.5 8.26522 15.5 8C15.5 7.73478 15.3946 7.48043 15.2071 7.29289C15.0196 7.10536 14.7652 7 14.5 7H14C13.2044 7 12.4413 7.31607 11.8787 7.87868C11.3161 8.44129 11 9.20435 11 10V12H9C8.73478 12 8.48043 12.1054 8.29289 12.2929C8.10536 12.4804 8 12.7348 8 13C8 13.2652 8.10536 13.5196 8.29289 13.7071C8.48043 13.8946 8.73478 14 9 14H11V19.938C9.06661 19.6944 7.28861 18.7535 5.99975 17.292C4.7109 15.8304 3.99982 13.9487 4 12ZM12 22C17.523 22 22 17.523 22 12C22 6.477 17.523 2 12 2C6.477 2 2 6.477 2 12C2 17.523 6.477 22 12 22Z" fill="currentColor"/>
</symbol><symbol viewBox="0 0 20 20" fill="none" id="icon-flag" xmlns="http://www.w3.org/2000/svg">
<g clip-path="url(#dclip0_30_50)">
<path d="M18.885 5.82344L15.3865 2.07344C15.3279 2.01082 15.257 1.96091 15.1783 1.92677C15.0996 1.89264 15.0148 1.87502 14.929 1.875H9.71181L9.69212 0.585938C9.69212 0.2625 9.41212 0 9.06712 0C8.72212 0 8.48119 0.2625 8.48119 0.585938L8.46214 1.875H1.57214C1.22683 1.875 0.947144 2.15469 0.947144 2.5V10C0.947144 10.3453 1.22683 10.625 1.57214 10.625H8.45371V19.4141C8.45371 19.7375 8.73371 20 9.07871 20C9.42371 20 9.70371 19.7375 9.70371 19.4141V10.625H14.929C15.1025 10.625 15.2678 10.5531 15.3862 10.4266L18.8846 6.67656C19.1087 6.43625 19.1087 6.06375 18.885 5.82344ZM14.6574 9.375H2.19712V3.125H14.6574L17.5731 6.25L14.6574 9.375Z" fill="currentColor"/>
</g>
<defs>
<clipPath id="dclip0_30_50">
<rect width="20" height="20" fill="currentColor"/>
</clipPath>
</defs>
</symbol><symbol viewBox="0 0 20 20" fill="none" id="icon-inst" xmlns="http://www.w3.org/2000/svg">
<path d="M5.8 0H14.2C17.4 0 20 2.6 20 5.8V14.2C20 15.7383 19.3889 17.2135 18.3012 18.3012C17.2135 19.3889 15.7383 20 14.2 20H5.8C2.6 20 0 17.4 0 14.2V5.8C0 4.26174 0.61107 2.78649 1.69878 1.69878C2.78649 0.61107 4.26174 0 5.8 0ZM5.6 2C4.64522 2 3.72955 2.37928 3.05442 3.05442C2.37928 3.72955 2 4.64522 2 5.6V14.4C2 16.39 3.61 18 5.6 18H14.4C15.3548 18 16.2705 17.6207 16.9456 16.9456C17.6207 16.2705 18 15.3548 18 14.4V5.6C18 3.61 16.39 2 14.4 2H5.6ZM15.25 3.5C15.5815 3.5 15.8995 3.6317 16.1339 3.86612C16.3683 4.10054 16.5 4.41848 16.5 4.75C16.5 5.08152 16.3683 5.39946 16.1339 5.63388C15.8995 5.8683 15.5815 6 15.25 6C14.9185 6 14.6005 5.8683 14.3661 5.63388C14.1317 5.39946 14 5.08152 14 4.75C14 4.41848 14.1317 4.10054 14.3661 3.86612C14.6005 3.6317 14.9185 3.5 15.25 3.5ZM10 5C11.3261 5 12.5979 5.52678 13.5355 6.46447C14.4732 7.40215 15 8.67392 15 10C15 11.3261 14.4732 12.5979 13.5355 13.5355C12.5979 14.4732 11.3261 15 10 15C8.67392 15 7.40215 14.4732 6.46447 13.5355C5.52678 12.5979 5 11.3261 5 10C5 8.67392 5.52678 7.40215 6.46447 6.46447C7.40215 5.52678 8.67392 5 10 5ZM10 7C9.20435 7 8.44129 7.31607 7.87868 7.87868C7.31607 8.44129 7 9.20435 7 10C7 10.7956 7.31607 11.5587 7.87868 12.1213C8.44129 12.6839 9.20435 13 10 13C10.7956 13 11.5587 12.6839 12.1213 12.1213C12.6839 11.5587 13 10.7956 13 10C13 9.20435 12.6839 8.44129 12.1213 7.87868C11.5587 7.31607 10.7956 7 10 7Z" fill="currentColor"/>
</symbol><symbol viewBox="0 0 20 20" fill="none" id="icon-line-location" xmlns="http://www.w3.org/2000/svg">
<path d="M5.01328 3.75163C4.68732 3.75141 4.36452 3.81545 4.06333 3.94008C3.76214 4.06472 3.48848 4.24751 3.25799 4.478C3.0275 4.70849 2.84471 4.98215 2.72008 5.28334C2.59544 5.58453 2.5314 5.90733 2.53162 6.23329C2.53162 8.09413 5.01328 10.8416 5.01328 10.8416C5.01328 10.8416 7.49495 8.09413 7.49495 6.23329C7.49517 5.90733 7.43113 5.58453 7.30649 5.28334C7.18185 4.98215 6.99906 4.70849 6.76858 4.478C6.53809 4.24751 6.26442 4.06472 5.96324 3.94008C5.66205 3.81545 5.33924 3.75141 5.01328 3.75163ZM5.01328 7.11913C4.83808 7.11913 4.66682 7.06717 4.52114 6.96984C4.37547 6.8725 4.26193 6.73415 4.19488 6.57229C4.12783 6.41042 4.11029 6.23231 4.14447 6.06047C4.17865 5.88864 4.26302 5.7308 4.3869 5.60691C4.51079 5.48303 4.66863 5.39866 4.84047 5.36448C5.0123 5.3303 5.19041 5.34784 5.35228 5.41489C5.51414 5.48194 5.65249 5.59547 5.74983 5.74115C5.84716 5.88682 5.89912 6.05809 5.89912 6.23329C5.8989 6.46816 5.8055 6.69335 5.63942 6.85943C5.47334 7.02551 5.24815 7.11891 5.01328 7.11913ZM17.5199 9.41329V5.82996C17.5137 5.4537 17.4565 5.08003 17.3499 4.71913C17.0765 3.76523 16.4714 2.94036 15.6435 2.39318C14.8157 1.84599 13.8197 1.61248 12.8349 1.73472C11.8502 1.85696 10.9415 2.32692 10.2725 3.05989C9.60364 3.79287 9.21853 4.74066 9.18662 5.73246V5.93913L9.17828 6.66413V14.9575H9.17495V14.9916C9.17495 15.4337 8.99935 15.8576 8.68679 16.1701C8.37423 16.4827 7.95031 16.6583 7.50828 16.6583C7.06626 16.6583 6.64233 16.4827 6.32977 16.1701C6.01721 15.8576 5.84162 15.4337 5.84162 14.9916L5.84495 14.9608H5.84162V13.3416H4.17495V15.0083H4.17662C4.17717 15.8919 4.52871 16.7391 5.15391 17.3635C5.77911 17.9879 6.62675 18.3384 7.51037 18.3379C8.39398 18.3373 9.24118 17.9858 9.8656 17.3606C10.49 16.7354 10.8405 15.8877 10.84 15.0041H10.8416V14.1858H10.8458V7.49746L10.8541 5.93913V5.73329C10.8779 5.07726 11.1586 4.45687 11.6358 4.00602C12.1129 3.55518 12.7482 3.31002 13.4046 3.32348C14.0609 3.33693 14.6856 3.60792 15.1439 4.07794C15.6022 4.54796 15.8573 5.17934 15.8541 5.83579V9.39829C15.535 9.57886 15.2844 9.85967 15.1411 10.1972C14.9978 10.5347 14.9699 10.91 15.0616 11.265C15.1534 11.62 15.3597 11.9348 15.6486 12.1606C15.9375 12.3864 16.2928 12.5106 16.6595 12.5139C17.0261 12.5172 17.3836 12.3994 17.6765 12.1789C17.9694 11.9583 18.1814 11.6473 18.2795 11.294C18.3777 10.9407 18.3565 10.5649 18.2193 10.2249C18.0821 9.88485 17.8358 9.59957 17.5199 9.41329Z" fill="currentColor"/>
</symbol><symbol viewBox="0 0 20 20" fill="none" id="icon-list" xmlns="http://www.w3.org/2000/svg">
<path d="M9.16667 12.5H14.1667V14.1667H9.16667V12.5ZM7.5 5.83333H5.83333V7.5H7.5V5.83333ZM9.16667 10.8333H14.1667V9.16667H9.16667V10.8333ZM9.16667 7.5H14.1667V5.83333H9.16667V7.5ZM7.5 9.16667H5.83333V10.8333H7.5V9.16667ZM17.5 4.16667V15.8333C17.5 16.75 16.75 17.5 15.8333 17.5H4.16667C3.25 17.5 2.5 16.75 2.5 15.8333V4.16667C2.5 3.25 3.25 2.5 4.16667 2.5H15.8333C16.75 2.5 17.5 3.25 17.5 4.16667ZM15.8333 4.16667H4.16667V15.8333H15.8333V4.16667ZM7.5 12.5H5.83333V14.1667H7.5V12.5Z" fill="currentColor"/>
</symbol><symbol viewBox="0 0 20 20" fill="none" id="icon-location" xmlns="http://www.w3.org/2000/svg">
<path d="M10 11.6667C11.8383 11.6667 13.3333 10.1717 13.3333 8.33333C13.3333 6.495 11.8383 5 10 5C8.16167 5 6.66667 6.495 6.66667 8.33333C6.66667 10.1717 8.16167 11.6667 10 11.6667ZM10 6.66667C10.9192 6.66667 11.6667 7.41417 11.6667 8.33333C11.6667 9.2525 10.9192 10 10 10C9.08084 10 8.33334 9.2525 8.33334 8.33333C8.33334 7.41417 9.08084 6.66667 10 6.66667Z" fill="currentColor"/>
<path d="M9.51667 18.1784C9.65781 18.2788 9.82675 18.3328 10 18.3328C10.1733 18.3328 10.3422 18.2788 10.4833 18.1784C10.7367 17.9992 16.6908 13.7 16.6667 8.33335C16.6667 4.65752 13.6758 1.66669 10 1.66669C6.32417 1.66669 3.33334 4.65752 3.33334 8.32919C3.30917 13.7 9.26334 17.9992 9.51667 18.1784ZM10 3.33335C12.7575 3.33335 15 5.57585 15 8.33752C15.0175 12.0359 11.3433 15.3567 10 16.4459C8.65751 15.3559 4.98251 12.0342 5.00001 8.33335C5.00001 5.57585 7.24251 3.33335 10 3.33335Z" fill="currentColor"/>
</symbol><symbol viewBox="0 0 24 24" fill="none" id="icon-mail" xmlns="http://www.w3.org/2000/svg">
<path d="M4 20C3.45 20 2.97933 19.8043 2.588 19.413C2.19667 19.0217 2.00067 18.5507 2 18V6C2 5.45 2.196 4.97933 2.588 4.588C2.98 4.19667 3.45067 4.00067 4 4H20C20.55 4 21.021 4.196 21.413 4.588C21.805 4.98 22.0007 5.45067 22 6V18C22 18.55 21.8043 19.021 21.413 19.413C21.0217 19.805 20.5507 20.0007 20 20H4ZM12 13L4 8V18H20V8L12 13ZM12 11L20 6H4L12 11ZM4 8V6V18V8Z" fill="currentColor"/>
</symbol><symbol viewBox="0 0 20 20" fill="none" id="icon-people" xmlns="http://www.w3.org/2000/svg">
<path d="M15.7031 6.5625C15.5886 8.15117 14.4101 9.375 13.1249 9.375C11.8398 9.375 10.6593 8.15156 10.5468 6.5625C10.4296 4.90977 11.5769 3.75 13.1249 3.75C14.673 3.75 15.8202 4.93984 15.7031 6.5625Z" stroke="currentColor" stroke-linecap="round" stroke-linejoin="round"/>
<path d="M13.1251 11.875C10.5794 11.875 8.13134 13.1395 7.51806 15.602C7.43681 15.9277 7.6411 16.25 7.97587 16.25H18.2747C18.6095 16.25 18.8126 15.9277 18.7325 15.602C18.1192 13.1 15.6712 11.875 13.1251 11.875Z" stroke="currentColor" stroke-miterlimit="10"/>
<path d="M7.81238 7.26328C7.72098 8.53203 6.76863 9.53125 5.74207 9.53125C4.71551 9.53125 3.7616 8.53242 3.67176 7.26328C3.5784 5.94336 4.50535 5 5.74207 5C6.97879 5 7.90574 5.96758 7.81238 7.26328Z" stroke="currentColor" stroke-linecap="round" stroke-linejoin="round"/>
<path d="M8.04677 11.9531C7.34169 11.6301 6.56513 11.5059 5.74208 11.5059C3.71083 11.5059 1.7538 12.5156 1.26357 14.4824C1.19911 14.7426 1.36239 15 1.62958 15H6.01552" stroke="currentColor" stroke-miterlimit="10" stroke-linecap="round"/>
</symbol><symbol viewBox="0 0 20 20" fill="none" id="icon-plane" xmlns="http://www.w3.org/2000/svg">
<path d="M16.825 3.33331H3.33335C2.41669 3.33331 1.67502 4.08331 1.67502 4.99998V8.33331C2.59169 8.33331 3.33335 9.08331 3.33335 9.99998C3.33335 10.9166 2.59169 11.6666 1.66669 11.6666V15C1.66669 15.9166 2.41669 16.6666 3.33335 16.6666H16.6667C17.5834 16.6666 18.3334 15.9166 18.3334 15V4.99998C18.3334 4.08331 17.6584 3.33331 16.825 3.33331ZM16.6667 15H3.33335V12.8833C4.32502 12.3083 5.00002 11.225 5.00002 9.99998C5.00002 8.76665 4.33335 7.69165 3.34169 7.11665L3.33335 4.99998H16.6667V15ZM7.39169 13.05L6.00835 10.65L6.78335 10.4416L7.83335 11.2666L9.82502 10.7333L7.82502 7.26665L8.99169 6.94998L12.3334 10.0666L14.3667 9.52498C14.5722 9.47064 14.7909 9.4997 14.975 9.60584C15.1592 9.71198 15.294 9.88659 15.35 10.0916C15.4014 10.2992 15.3701 10.5187 15.2629 10.7037C15.1556 10.8887 14.9807 11.0248 14.775 11.0833L7.39169 13.05Z" fill="currentColor"/>
</symbol><symbol viewBox="0 0 20 20" fill="none" id="icon-portfel" xmlns="http://www.w3.org/2000/svg">
<path d="M5.71436 19.2857V5.71425M14.2858 19.2857V5.71425M6.42864 5.71425C6.42864 4.76705 6.80492 3.85864 7.47469 3.18887C8.14446 2.5191 9.05287 2.14282 10.0001 2.14282C10.9473 2.14282 11.8557 2.5191 12.5255 3.18887C13.1952 3.85864 13.5715 4.76705 13.5715 5.71425M16.4286 5.71425H3.5715C2.81374 5.71425 2.08701 6.01527 1.55119 6.55109C1.01538 7.08691 0.714355 7.81363 0.714355 8.57139V16.4285C0.714355 17.1863 1.01538 17.913 1.55119 18.4488C2.08701 18.9847 2.81374 19.2857 3.5715 19.2857H16.4286C17.1864 19.2857 17.9131 18.9847 18.4489 18.4488C18.9848 17.913 19.2858 17.1863 19.2858 16.4285V8.57139C19.2858 7.81363 18.9848 7.08691 18.4489 6.55109C17.9131 6.01527 17.1864 5.71425 16.4286 5.71425Z" stroke="currentColor" stroke-linecap="round" stroke-linejoin="round"/>
</symbol><symbol viewBox="0 0 20 20" fill="none" id="icon-profile" xmlns="http://www.w3.org/2000/svg">
<path d="M10 8.33333C10.383 8.33333 10.7623 8.25789 11.1162 8.11132C11.47 7.96474 11.7916 7.7499 12.0624 7.47906C12.3332 7.20822 12.5481 6.88669 12.6946 6.53283C12.8412 6.17896 12.9167 5.79969 12.9167 5.41667C12.9167 5.03364 12.8412 4.65437 12.6946 4.30051C12.5481 3.94664 12.3332 3.62511 12.0624 3.35427C11.7916 3.08343 11.47 2.86859 11.1162 2.72202C10.7623 2.57544 10.383 2.5 10 2.5C9.22645 2.5 8.48459 2.80729 7.93761 3.35427C7.39062 3.90125 7.08333 4.64312 7.08333 5.41667C7.08333 6.19021 7.39062 6.93208 7.93761 7.47906C8.48459 8.02604 9.22645 8.33333 10 8.33333ZM2.5 17V17.5H17.5V17C17.5 15.1333 17.5 14.2 17.1367 13.4867C16.8171 12.8595 16.3072 12.3496 15.68 12.03C14.9667 11.6667 14.0333 11.6667 12.1667 11.6667H7.83333C5.96667 11.6667 5.03333 11.6667 4.32 12.03C3.69282 12.3496 3.18291 12.8595 2.86333 13.4867C2.5 14.2 2.5 15.1333 2.5 17Z" stroke="currentColor" stroke-width="2" stroke-linecap="round" stroke-linejoin="round"/>
</symbol><symbol viewBox="0 0 32 32" fill="none" id="icon-star" xmlns="http://www.w3.org/2000/svg">
<path d="M15.224 3.70781C15.5563 2.68506 17.0032 2.68506 17.3355 3.70781L19.5198 10.4303C19.6684 10.8876 20.0946 11.1973 20.5756 11.1973L27.644 11.1973C28.7194 11.1973 29.1665 12.5734 28.2965 13.2055L22.578 17.3602C22.1889 17.6429 22.0261 18.144 22.1747 18.6013L24.359 25.3238C24.6913 26.3465 23.5207 27.197 22.6507 26.5649L16.9323 22.4102C16.5432 22.1275 16.0164 22.1275 15.6273 22.4102L9.90882 26.5649C9.03882 27.197 7.86824 26.3465 8.20055 25.3238L10.3848 18.6013C10.5334 18.144 10.3706 17.6429 9.98154 17.3602L4.26308 13.2055C3.39308 12.5734 3.8402 11.1973 4.91558 11.1973L11.984 11.1973C12.4649 11.1973 12.8911 10.8876 13.0398 10.4303L15.224 3.70781Z" fill="currentColor"/>
</symbol><symbol viewBox="0 0 24 24" fill="none" id="icon-tel" xmlns="http://www.w3.org/2000/svg">
<path d="M15.6 14.522C13.205 17.042 7.09603 10.988 9.50003 8.45799C10.968 6.91299 9.31003 5.14799 8.39203 3.84899C6.66903 1.41399 2.88803 4.77599 3.00203 6.91499C3.36503 13.661 10.662 21.655 17.728 20.957C19.938 20.739 22.478 16.747 19.943 15.288C18.675 14.558 16.934 13.118 15.6 14.521" stroke="currentColor" stroke-width="1.5" stroke-linecap="round" stroke-linejoin="round"/>
</symbol><symbol viewBox="0 0 16 19" fill="none" id="icon-time" xmlns="http://www.w3.org/2000/svg">
<path d="M8 3.125C6.51664 3.125 5.0666 3.56487 3.83323 4.38898C2.59986 5.21309 1.63856 6.38443 1.07091 7.75487C0.50325 9.12532 0.354725 10.6333 0.644114 12.0882C0.933503 13.543 1.64781 14.8794 2.6967 15.9283C3.7456 16.9772 5.08197 17.6915 6.53683 17.9809C7.99168 18.2703 9.49968 18.1218 10.8701 17.5541C12.2406 16.9864 13.4119 16.0251 14.236 14.7918C15.0601 13.5584 15.5 12.1084 15.5 10.625C15.4977 8.63657 14.7068 6.73024 13.3008 5.32421C11.8948 3.91818 9.98843 3.12727 8 3.125ZM8 16.875C6.76387 16.875 5.5555 16.5084 4.52769 15.8217C3.49988 15.1349 2.6988 14.1588 2.22576 13.0168C1.75271 11.8747 1.62894 10.6181 1.8701 9.40569C2.11125 8.1933 2.70651 7.07966 3.58059 6.20558C4.45466 5.3315 5.56831 4.73625 6.78069 4.49509C7.99307 4.25393 9.24974 4.37771 10.3918 4.85075C11.5338 5.3238 12.5099 6.12488 13.1967 7.15269C13.8834 8.18049 14.25 9.38887 14.25 10.625C14.2481 12.282 13.5891 13.8707 12.4174 15.0424C11.2457 16.2141 9.65704 16.8731 8 16.875ZM11.5672 7.05781C11.6253 7.11586 11.6714 7.18479 11.7029 7.26066C11.7343 7.33654 11.7505 7.41787 11.7505 7.5C11.7505 7.58213 11.7343 7.66346 11.7029 7.73934C11.6714 7.81521 11.6253 7.88414 11.5672 7.94219L8.44219 11.0672C8.38412 11.1253 8.31518 11.1713 8.23931 11.2027C8.16344 11.2342 8.08213 11.2503 8 11.2503C7.91788 11.2503 7.83656 11.2342 7.76069 11.2027C7.68482 11.1713 7.61588 11.1253 7.55782 11.0672C7.49975 11.0091 7.45368 10.9402 7.42226 10.8643C7.39083 10.7884 7.37466 10.7071 7.37466 10.625C7.37466 10.5429 7.39083 10.4616 7.42226 10.3857C7.45368 10.3098 7.49975 10.2409 7.55782 10.1828L10.6828 7.05781C10.7409 6.9997 10.8098 6.9536 10.8857 6.92215C10.9615 6.8907 11.0429 6.87451 11.125 6.87451C11.2071 6.87451 11.2885 6.8907 11.3643 6.92215C11.4402 6.9536 11.5091 6.9997 11.5672 7.05781ZM5.5 1.25C5.5 1.08424 5.56585 0.925268 5.68306 0.808058C5.80027 0.690848 5.95924 0.625 6.125 0.625H9.875C10.0408 0.625 10.1997 0.690848 10.3169 0.808058C10.4342 0.925268 10.5 1.08424 10.5 1.25C10.5 1.41576 10.4342 1.57473 10.3169 1.69194C10.1997 1.80915 10.0408 1.875 9.875 1.875H6.125C5.95924 1.875 5.80027 1.80915 5.68306 1.69194C5.56585 1.57473 5.5 1.41576 5.5 1.25Z" fill="currentColor"/>
</symbol><symbol viewBox="0 0 32 33" fill="none" id="icon-wh" xmlns="http://www.w3.org/2000/svg">
<path d="M25.4 7.0467C24.1774 5.81217 22.7214 4.83332 21.1167 4.16718C19.512 3.50104 17.7908 3.16094 16.0533 3.1667C8.77334 3.1667 2.84 9.10003 2.84 16.38C2.84 18.7134 3.45334 20.98 4.6 22.98L2.73334 29.8334L9.73334 27.9934C11.6667 29.0467 13.84 29.6067 16.0533 29.6067C23.3333 29.6067 29.2667 23.6734 29.2667 16.3934C29.2667 12.86 27.8933 9.54003 25.4 7.0467ZM16.0533 27.3667C14.08 27.3667 12.1467 26.8334 10.4533 25.8334L10.0533 25.5934L5.89334 26.6867L7 22.6334L6.73334 22.22C5.63673 20.4694 5.05457 18.4457 5.05334 16.38C5.05334 10.3267 9.98667 5.39336 16.04 5.39336C18.9733 5.39336 21.7333 6.54003 23.8 8.62003C24.8235 9.63852 25.6346 10.8501 26.1862 12.1845C26.7378 13.5189 27.0189 14.9495 27.0133 16.3934C27.04 22.4467 22.1067 27.3667 16.0533 27.3667ZM22.08 19.1534C21.7467 18.9934 20.12 18.1934 19.8267 18.0734C19.52 17.9667 19.3067 17.9134 19.08 18.2334C18.8533 18.5667 18.2267 19.3134 18.04 19.5267C17.8533 19.7534 17.6533 19.78 17.32 19.6067C16.9867 19.4467 15.92 19.0867 14.6667 17.9667C13.68 17.0867 13.0267 16.0067 12.8267 15.6734C12.64 15.34 12.8 15.1667 12.9733 14.9934C13.12 14.8467 13.3067 14.6067 13.4667 14.42C13.6267 14.2334 13.6933 14.0867 13.8 13.8734C13.9067 13.6467 13.8533 13.46 13.7733 13.3C13.6933 13.14 13.0267 11.5134 12.76 10.8467C12.4933 10.2067 12.2133 10.2867 12.0133 10.2734H11.3733C11.1467 10.2734 10.8 10.3534 10.4933 10.6867C10.2 11.02 9.34667 11.82 9.34667 13.4467C9.34667 15.0734 10.5333 16.6467 10.6933 16.86C10.8533 17.0867 13.0267 20.42 16.3333 21.8467C17.12 22.1934 17.7333 22.3934 18.2133 22.54C19 22.7934 19.72 22.7534 20.2933 22.6734C20.9333 22.58 22.2533 21.8734 22.52 21.1C22.8 20.3267 22.8 19.6734 22.7067 19.5267C22.6133 19.38 22.4133 19.3134 22.08 19.1534Z" fill="currentColor"/>
</symbol></svg>